<?xml version="1.0" standalone="no"?>
<!DOCTYPE svg PUBLIC "-//W3C//DTD SVG 20010904//EN"
 "http://www.w3.org/TR/2001/REC-SVG-20010904/DTD/svg10.dtd">
<svg version="1.0" xmlns="http://www.w3.org/2000/svg"
 viewBox="0 0 640.000000 1280.000000"
 preserveAspectRatio="xMidYMid meet">
<metadata>
Created by potrace 1.15, written by Peter Selinger 2001-2017
</metadata>
<g transform="translate(0.000000,1280.000000) scale(0.100000,-0.100000)"
fill="#000000" stroke="none">
<path d="M3232 12789 c-102 -17 -207 -60 -335 -137 -71 -42 -155 -98 -187
-124 -162 -132 -285 -372 -335 -655 -61 -347 -39 -792 89 -1863 87 -726 98
-1112 41 -1510 -42 -292 -152 -637 -475 -1500 -330 -881 -472 -1326 -569
-1790 -55 -264 -91 -515 -105 -745 -83 -1291 86 -2411 533 -3541 122 -309 197
-436 345 -587 167 -169 365 -276 587 -316 98 -17 395 -24 516 -12 318 32 562
150 700 337 118 161 320 530 425 779 236 556 397 1149 514 1890 67 422 90 759
80 1160 -21 836 -177 1654 -494 2585 -57 168 -141 416 -188 553 -292 858 -373
1462 -273 2042 11 66 31 194 44 285 13 91 51 320 85 510 133 755 153 903 170
1233 10 195 0 482 -21 599 -50 288 -263 560 -548 703 -193 97 -412 135 -599
104z m101 -352 c105 -49 178 -122 239 -242 79 -154 112 -255 146 -450 14 -82
17 -156 16 -405 -1 -168 -6 -408 -11 -535 -6 -142 -6 -243 0 -265 5 -19 10
-71 11 -115 1 -68 -3 -88 -25 -130 -15 -31 -41 -61 -66 -77 -77 -52 -130 -60
-479 -67 -176 -4 -325 -10 -330 -13 -5 -3 -63 -13 -129 -23 -163 -23 -167 -20
-183 82 -75 469 -93 674 -93 1027 1 322 29 640 67 755 78 233 273 421 504 486
38 10 86 14 155 12 90 -3 108 -7 178 -40z m144 -3117 c53 -23 98 -85 113 -156
8 -36 10 -126 6 -262 l-5 -207 -27 -24 -28 -23 -280 3 c-229 3 -307 0 -421
-15 -121 -16 -145 -16 -180 -5 -53 18 -67 48 -61 124 3 33 1 92 -3 130 -26
226 73 381 277 435 99 27 547 26 609 0z m-217 -1605 c126 -20 290 -51 295 -57
2 -2 18 -114 35 -248 17 -135 82 -607 145 -1050 150 -1054 159 -1143 174
-1614 33 -1033 -107 -2081 -420 -3143 -179 -607 -317 -901 -516 -1095 -49 -47
-67 -58 -114 -68 -78 -17 -230 -8 -300 17 -173 63 -324 218 -447 460 -248 490
-450 1117 -556 1723 -46 261 -70 454 -98 780 -17 194 -17 837 0 1000 88 849
266 1503 781 2860 l116 305 61 41 c65 43 192 89 289 104 91 13 434 4 555 -15z"/>
</g>
</svg>
